<svg width="41" height="40" viewBox="0 0 41 40" fill="none" xmlns="http://www.w3.org/2000/svg">
<rect x="0.3125" width="40" height="40" rx="20" fill="#0F595C"/>
<path fill-rule="evenodd" clip-rule="evenodd" d="M6.18516 12.2919C5.34434 13.0934 6.23607 15.276 9.73805 20.9875C11.841 24.4165 13.8777 27.4127 14.2647 27.6458C15.5185 28.4 16.4199 27.5893 17.9962 24.2914L19.5423 21.0558L20.7162 23.5539C22.3004 26.9255 22.4435 27.0988 23.6415 27.0988C24.8027 27.0988 25.5093 26.2697 27.9936 21.9912C29.361 19.6365 29.5431 19.0439 29.128 18.3044C28.2915 16.8136 26.4778 17.3564 25.2639 19.4608C24.6996 20.4389 24.1045 21.2391 23.9417 21.2382C23.7789 21.2374 23.0759 19.9119 22.3794 18.2931C20.2488 13.3382 18.7186 13.4453 16.4401 18.7083C15.6317 20.5757 14.8681 22.0066 14.744 21.8878C14.6193 21.7689 13.2111 19.5499 11.6141 16.9563C9.25751 13.1294 8.5027 12.2178 7.60439 12.1174C6.99571 12.0491 6.35675 12.1278 6.18516 12.2919Z" fill="white"/>
<path d="M34.73 15.5101C34.73 16.9255 33.5383 18.0729 32.0681 18.0729C30.598 18.0729 29.4062 16.9255 29.4062 15.5101C29.4062 14.0947 30.598 12.9473 32.0681 12.9473C33.5383 12.9473 34.73 14.0947 34.73 15.5101ZM30.7038 15.5101C30.7038 16.2355 31.3147 16.8236 32.0681 16.8236C32.8216 16.8236 33.4325 16.2355 33.4325 15.5101C33.4325 14.7846 32.8216 14.1966 32.0681 14.1966C31.3147 14.1966 30.7038 14.7846 30.7038 15.5101Z" fill="#F28532"/>
</svg>
