<svg width="14" height="15" viewBox="0 0 14 15" fill="none" xmlns="http://www.w3.org/2000/svg">
<g clip-path="url(#clip0_1_646)">
<path d="M12.2526 11.5833H13.4193V12.75H0.585938V11.5833H1.7526V2.83333C1.7526 2.67862 1.81406 2.53025 1.92346 2.42085C2.03285 2.31146 2.18123 2.25 2.33594 2.25H8.16927C8.32398 2.25 8.47235 2.31146 8.58175 2.42085C8.69115 2.53025 8.7526 2.67862 8.7526 2.83333V11.5833H9.91927V5.75H11.6693C11.824 5.75 11.9724 5.81146 12.0818 5.92085C12.1911 6.03025 12.2526 6.17862 12.2526 6.33333V11.5833ZM4.08594 6.91667V8.08333H6.41927V6.91667H4.08594ZM4.08594 4.58333V5.75H6.41927V4.58333H4.08594Z" fill="#F48400"/>
</g>
<defs>
<clipPath id="clip0_1_646">
<rect width="14" height="14" fill="white" transform="translate(0 0.5)"/>
</clipPath>
</defs>
</svg>
