<svg width="20" height="21" viewBox="0 0 20 21" fill="none" xmlns="http://www.w3.org/2000/svg">
<rect y="0.5" width="20" height="20" rx="10" fill="#EF802B"/>
<g clip-path="url(#clip0_1_1380)">
<path d="M14.1668 10.1167V10.5C14.1663 11.3985 13.8754 12.2728 13.3374 12.9924C12.7994 13.7121 12.0432 14.2385 11.1816 14.4933C10.3199 14.748 9.39902 14.7174 8.55619 14.4061C7.71336 14.0947 6.99377 13.5192 6.50473 12.7654C6.01569 12.0117 5.78341 11.12 5.84253 10.2234C5.90165 9.32689 6.249 8.47345 6.83278 7.79043C7.41656 7.10741 8.20549 6.63139 9.08191 6.43338C9.95833 6.23536 10.8753 6.32596 11.696 6.69165M14.1668 7.16665L10.0002 11.3375L8.75017 10.0875" stroke="white" stroke-linecap="round" stroke-linejoin="round"/>
</g>
<defs>
<clipPath id="clip0_1_1380">
<rect width="10" height="10" fill="white" transform="translate(5 5.5)"/>
</clipPath>
</defs>
</svg>
