<svg width="498" height="387" viewBox="0 0 498 387" fill="none" xmlns="http://www.w3.org/2000/svg">
<g id="No Upcoming Trips">
<g id="Group 3">
<mask id="mask0_1_1171" style="mask-type:luminance" maskUnits="userSpaceOnUse" x="47" y="0" width="415" height="237">
<path id="Clip 2" fill-rule="evenodd" clip-rule="evenodd" d="M149.785 41.9349H96.7031C89.8056 41.9349 84.164 47.5948 84.164 54.5143C84.164 61.4338 89.8056 67.0937 96.7031 67.0937H123.717H131.634C138.532 67.0937 144.173 72.7554 144.173 79.6749C144.173 83.1328 142.76 86.2845 140.486 88.5562C138.222 90.8389 135.079 92.2561 131.634 92.2561H114.744H105.419H59.922C53.0245 92.2561 47.3829 97.9178 47.3829 104.836C47.3829 111.753 53.0245 117.415 59.922 117.415H92.4934C82.6606 140.599 77.2152 166.108 77.2152 192.898C77.2152 202.618 77.9339 212.17 79.3127 221.504C79.8884 225.404 80.5833 229.271 81.3955 233.095C105.053 229.465 130.147 226.544 156.346 224.414L158.317 226.218L160.172 224.113C191.647 221.656 224.682 220.347 258.755 220.347C331.148 220.347 398.891 226.251 456.811 236.517C459.045 226.807 460.55 216.816 461.261 206.602C461.586 202.073 461.745 197.502 461.745 192.898C461.745 86.3597 375.67 0 269.481 0C224.224 0 182.628 15.6889 149.785 41.9349Z" fill="white"/>
</mask>
<g mask="url(#mask0_1_1171)">
<path id="Fill 1" fill-rule="evenodd" clip-rule="evenodd" d="M38.2156 245.684H470.912V-9.16736H38.2156V245.684Z" fill="#F7F1F2"/>
</g>
</g>
<g id="Group 6">
<mask id="mask1_1_1171" style="mask-type:luminance" maskUnits="userSpaceOnUse" x="1" y="91" width="34" height="27">
<path id="Clip 5" fill-rule="evenodd" clip-rule="evenodd" d="M14.2539 91.673C7.26837 91.673 1.55347 97.4503 1.55347 104.507C1.55347 111.564 7.26837 117.341 14.2539 117.341H21.8536C28.8409 117.341 34.5558 111.564 34.5558 104.507C34.5558 97.4503 28.8409 91.673 21.8536 91.673H14.2539Z" fill="white"/>
</mask>
<g mask="url(#mask1_1_1171)">
<path id="Fill 4" fill-rule="evenodd" clip-rule="evenodd" d="M-7.61389 126.509H43.723V82.5059H-7.61389V126.509Z" fill="#F7F1F1"/>
</g>
</g>
<g id="Group 9">
<mask id="mask2_1_1171" style="mask-type:luminance" maskUnits="userSpaceOnUse" x="81" y="220" width="416" height="166">
<path id="Clip 8" fill-rule="evenodd" clip-rule="evenodd" d="M159.887 224.366L158.03 226.458L156.059 224.665C129.868 226.782 104.781 229.681 81.1271 233.291C99.5552 319.981 176.744 385.027 269.167 385.027C312.442 385.027 352.373 370.759 384.508 346.691H418.715C425.609 346.691 431.25 341.064 431.25 334.19C431.25 330.758 429.837 327.623 427.565 325.366C425.299 323.098 422.156 321.69 418.715 321.69H403.838C396.943 321.69 391.301 316.065 391.301 309.189C391.301 305.755 392.715 302.622 394.986 300.363C397.253 298.095 400.395 296.689 403.838 296.689H483.911C490.807 296.689 496.446 291.064 496.446 284.186C496.446 280.752 495.033 277.619 492.761 275.362C490.488 273.094 487.36 271.686 483.911 271.686H444.648C449.662 260.544 453.641 248.843 456.455 236.692C398.547 226.493 330.821 220.624 258.445 220.624C224.381 220.624 191.351 221.924 159.887 224.366Z" fill="white"/>
</mask>
<g mask="url(#mask2_1_1171)">
<path id="Fill 7" fill-rule="evenodd" clip-rule="evenodd" d="M71.9597 394.194H505.612V211.456H71.9597V394.194Z" fill="#F2E8E8"/>
</g>
</g>
<g id="Group 15">
<mask id="mask3_1_1171" style="mask-type:luminance" maskUnits="userSpaceOnUse" x="155" y="223" width="5" height="3">
<path id="Clip 14" fill-rule="evenodd" clip-rule="evenodd" d="M155.567 223.946L157.456 225.517L159.234 223.682C158.009 223.763 156.783 223.851 155.567 223.946Z" fill="white"/>
</mask>
<g mask="url(#mask3_1_1171)">
<path id="Fill 13" fill-rule="evenodd" clip-rule="evenodd" d="M146.4 234.683H168.401V214.515H146.4V234.683Z" fill="#F7F1F1"/>
</g>
</g>
<g id="Group 21">
<mask id="mask4_1_1171" style="mask-type:luminance" maskUnits="userSpaceOnUse" x="200" y="292" width="144" height="14">
<path id="Clip 20" fill-rule="evenodd" clip-rule="evenodd" d="M200.881 299.254C200.881 302.796 232.895 305.671 272.387 305.671C311.878 305.671 343.892 302.796 343.892 299.254C343.892 295.712 311.878 292.837 272.387 292.837C232.895 292.837 200.881 295.712 200.881 299.254Z" fill="white"/>
</mask>
<g mask="url(#mask4_1_1171)">
<path id="Fill 19" fill-rule="evenodd" clip-rule="evenodd" d="M191.713 314.838H353.058V283.669H191.713V314.838Z" fill="#EAD8D8"/>
</g>
</g>
<g id="Group 24">
<mask id="mask5_1_1171" style="mask-type:luminance" maskUnits="userSpaceOnUse" x="443" y="320" width="27" height="27">
<path id="Clip 23" fill-rule="evenodd" clip-rule="evenodd" d="M443.415 333.69C443.415 340.749 449.19 346.524 456.249 346.524C463.308 346.524 469.083 340.749 469.083 333.69C469.083 326.633 463.308 320.856 456.249 320.856C449.19 320.856 443.415 326.633 443.415 333.69Z" fill="white"/>
</mask>
<g mask="url(#mask5_1_1171)">
<path id="Fill 22" fill-rule="evenodd" clip-rule="evenodd" d="M434.247 355.691H478.251V311.688H434.247V355.691Z" fill="#EFE1E1"/>
</g>
</g>
<g id="Frame">
<g id="Vector">
<path d="M179.877 150.725H189.885C195.193 150.725 200.284 148.616 204.038 144.863C207.791 141.109 209.9 136.018 209.9 130.71C209.9 128.056 210.954 125.51 212.831 123.633C214.708 121.757 217.253 120.702 219.908 120.702H279.953C282.608 120.702 285.153 121.757 287.03 123.633C288.907 125.51 289.961 128.056 289.961 130.71C289.961 136.018 292.07 141.109 295.823 144.863C299.577 148.616 304.668 150.725 309.976 150.725H319.984C325.292 150.725 330.383 152.834 334.137 156.587C337.891 160.341 339.999 165.432 339.999 170.74V260.809C339.999 266.118 337.891 271.209 334.137 274.962C330.383 278.716 325.292 280.825 319.984 280.825H179.877C174.569 280.825 169.478 278.716 165.724 274.962C161.97 271.209 159.862 266.118 159.862 260.809V170.74C159.862 165.432 161.97 160.341 165.724 156.587C169.478 152.834 174.569 150.725 179.877 150.725Z" fill="white"/>
<path d="M179.877 150.725H189.885C195.193 150.725 200.284 148.616 204.038 144.863C207.791 141.109 209.9 136.018 209.9 130.71C209.9 128.056 210.954 125.51 212.831 123.633C214.708 121.757 217.253 120.702 219.908 120.702H279.953C282.608 120.702 285.153 121.757 287.03 123.633C288.907 125.51 289.961 128.056 289.961 130.71C289.961 136.018 292.07 141.109 295.823 144.863C299.577 148.616 304.668 150.725 309.976 150.725H319.984C325.292 150.725 330.383 152.834 334.137 156.587C337.891 160.341 339.999 165.432 339.999 170.74V260.809C339.999 266.118 337.891 271.209 334.137 274.962C330.383 278.716 325.292 280.825 319.984 280.825H179.877C174.569 280.825 169.478 278.716 165.724 274.962C161.97 271.209 159.862 266.118 159.862 260.809V170.74C159.862 165.432 161.97 160.341 165.724 156.587C169.478 152.834 174.569 150.725 179.877 150.725" stroke="#AD000A" stroke-width="2" stroke-linecap="round" stroke-linejoin="round"/>
</g>
<path id="Vector_2" d="M274.964 241.3C271.702 237.972 267.81 235.328 263.514 233.522C259.218 231.717 254.604 230.787 249.945 230.787C245.285 230.787 240.671 231.717 236.375 233.522C232.079 235.328 228.187 237.972 224.925 241.3" stroke="#AD000A" stroke-width="2" stroke-linecap="round" stroke-linejoin="round"/>
<path id="Vector_3" d="M279.956 190.757H280.055" stroke="#AD000A" stroke-width="2" stroke-linecap="round" stroke-linejoin="round"/>
<path id="Vector_4" d="M219.909 190.757H220.008" stroke="#AD000A" stroke-width="2" stroke-linecap="round" stroke-linejoin="round"/>
</g>
</g>
</svg>
