<svg width="18" height="18" viewBox="0 0 18 18" fill="none" xmlns="http://www.w3.org/2000/svg">
<g clip-path="url(#clip0_1_673)">
<path d="M9 18C13.9706 18 18 13.9706 18 9C18 4.02944 13.9706 0 9 0C4.02944 0 0 4.02944 0 9C0 13.9706 4.02944 18 9 18Z" fill="#F0F0F0"/>
<path d="M-0.000488281 9.00023C-0.000488281 12.87 2.44189 16.1688 5.86909 17.4405V0.560059C2.44189 1.83166 -0.000488281 5.13058 -0.000488281 9.00023Z" fill="#008753"/>
<path d="M17.9999 9.00023C17.9999 5.13058 15.5576 1.83166 12.1304 0.560059V17.4405C15.5576 16.1688 17.9999 12.8699 17.9999 9.00023Z" fill="#008753"/>
</g>
<defs>
<clipPath id="clip0_1_673">
<rect width="18" height="18" fill="white"/>
</clipPath>
</defs>
</svg>
