<svg width="28" height="28" viewBox="0 0 28 28" fill="none" xmlns="http://www.w3.org/2000/svg">
<circle cx="14" cy="14" r="14" fill="#F2F5FE"/>
<g clip-path="url(#clip0_1_601)">
<path d="M7.25 14H8M14 7.25V8M20 14H20.75M9.2 9.2L9.725 9.725M18.8 9.2L18.275 9.725" stroke="black" stroke-linecap="round" stroke-linejoin="round"/>
<path d="M11.75 17C11.1204 16.5278 10.6552 15.8694 10.4206 15.1181C10.1859 14.3669 10.1935 13.5608 10.4424 12.8141C10.6913 12.0675 11.1688 11.418 11.8073 10.9578C12.4458 10.4976 13.2129 10.25 14 10.25C14.7871 10.25 15.5542 10.4976 16.1927 10.9578C16.8312 11.418 17.3087 12.0675 17.5576 12.8141C17.8065 13.5608 17.8141 14.3669 17.5794 15.1181C17.3448 15.8694 16.8796 16.5278 16.25 17C15.9572 17.2899 15.7367 17.6446 15.6064 18.0355C15.4761 18.4264 15.4397 18.8424 15.5 19.25C15.5 19.6478 15.342 20.0294 15.0607 20.3107C14.7794 20.592 14.3978 20.75 14 20.75C13.6022 20.75 13.2206 20.592 12.9393 20.3107C12.658 20.0294 12.5 19.6478 12.5 19.25C12.5603 18.8424 12.5239 18.4264 12.3936 18.0355C12.2633 17.6446 12.0428 17.2899 11.75 17" stroke="black" stroke-linecap="round" stroke-linejoin="round"/>
<path d="M12.2734 17.75H15.7234" stroke="black" stroke-linecap="round" stroke-linejoin="round"/>
</g>
<defs>
<clipPath id="clip0_1_601">
<rect width="18" height="18" fill="white" transform="translate(5 5)"/>
</clipPath>
</defs>
</svg>
