<svg width="15" height="16" viewBox="0 0 15 16" fill="none" xmlns="http://www.w3.org/2000/svg">
<path d="M5.56016 5.99998C5.7169 5.55442 6.02626 5.17872 6.43347 4.9394C6.84067 4.70009 7.31943 4.61261 7.78495 4.69245C8.25047 4.7723 8.67271 5.01433 8.97688 5.37567C9.28106 5.737 9.44753 6.19433 9.44683 6.66665C9.44683 7.99998 7.44683 8.66665 7.44683 8.66665M7.50016 11.3333H7.50683M14.1668 7.99998C14.1668 11.6819 11.1821 14.6666 7.50016 14.6666C3.81826 14.6666 0.833496 11.6819 0.833496 7.99998C0.833496 4.31808 3.81826 1.33331 7.50016 1.33331C11.1821 1.33331 14.1668 4.31808 14.1668 7.99998Z" stroke="#98A2B3" stroke-width="1.33333" stroke-linecap="round" stroke-linejoin="round"/>
</svg>
